<svg xmlns="http://www.w3.org/2000/svg" width="504.008" height="446.706" viewBox="0 0 504.008 446.706">
  <g id="guide_std" transform="translate(-98.001 -56.65)">
    <path id="Path_1" data-name="Path 1" d="M375.54,243.4c-13.211-11.312-23.934-13.719-25.984-14.23a5.2,5.2,0,0,1-4.227-4.09c-2.559.363-4.961.875-7.078,1.316a43.919,43.919,0,0,1-8.98,1.309h-.582a5.706,5.706,0,0,1-4.234-2.262,5.5,5.5,0,0,1-.8-4.742,84.937,84.937,0,0,1,5.477-13.648c-.219,0-.437.074-.66.074a53.822,53.822,0,0,0-7.668.656v.078a64.48,64.48,0,0,0-47.438,33.422l-46.922,88.227c0,.074,0,.074-.074.145a5.926,5.926,0,0,1-6.562,2.191l-48.453-16.562v60.938l32.039,10.949.074-.066,25.832,8.82a28.328,28.328,0,0,0,33.789-12.477c.219-.363.438-.656.727-1.172l1.68-3.207,30.574-57.73a2.71,2.71,0,0,1,5.105,1.316v180.7h76.914l.008-258.78a5.838,5.838,0,0,1-2.551-1.172Zm-20.8-36.418c-2.844-4.3-4.809-8.824-4.891-14.375a.749.749,0,0,0-.8-.727.472.472,0,0,0-.363.141,39.748,39.748,0,0,0-14.234,14.957,75.6,75.6,0,0,0-6.277,15.109.675.675,0,0,0,.582.953h.508c4.672,0,10.949-2.336,19.777-3.062h.145a.635.635,0,0,1,.656.727v3.281a.7.7,0,0,0,.582.656c2.633.438,13.871,3.281,27.652,14.891V236.4c-7.5-12.988-17.426-20.723-23.336-29.414Zm72.836,0a40.481,40.481,0,0,0-14.3-14.957.407.407,0,0,0-.363-.141.793.793,0,0,0-.8.727c-.086,5.551-2.051,10.074-4.895,14.375-5.836,8.688-15.832,16.348-23.277,29.34v3.207c13.727-11.6,25.031-14.453,27.59-14.891a.635.635,0,0,0,.582-.656V220.7a.683.683,0,0,1,.727-.727h.074c8.824.727,15.176,3.063,19.848,3.063h.438a.677.677,0,0,0,.59-.953,75.2,75.2,0,0,0-6.211-15.1Zm-269-85.23a10.766,10.766,0,1,0,10.8,10.73,10.745,10.745,0,0,0-10.8-10.73Zm49.91-65.1H108.653A10.621,10.621,0,0,0,98,67.306v153.47a10.618,10.618,0,0,0,10.652,10.656h99.832a10.619,10.619,0,0,0,10.656-10.656V67.306a10.618,10.618,0,0,0-10.66-10.656ZM185.2,135.181c-1.895,22.766-26.633,47.219-26.633,47.219s-24.734-24.449-26.633-47.219c-.074-.875-.145-1.746-.145-2.7,0-1.023.074-1.824.145-2.7a26.769,26.769,0,0,1,53.266,0c.078.875.145,1.68.145,2.7C185.356,133.427,185.282,134.3,185.2,135.181Zm-26.633-13.43a10.766,10.766,0,1,0,10.8,10.73,10.745,10.745,0,0,0-10.8-10.73Zm0,0a10.766,10.766,0,1,0,10.8,10.73,10.745,10.745,0,0,0-10.8-10.73ZM153.1,238.731v264.62h10.949V238.731Zm445.53,209.88-110.19-207.32a64.289,64.289,0,0,0-39.922-31.746V209.4c-1.461-.363-2.992-.656-4.453-.953-.656-.141-1.391-.293-2.043-.437a73.559,73.559,0,0,0-8.023-.875c-.371,0-.734-.074-1.172-.074a85.2,85.2,0,0,1,5.477,13.648,5.524,5.524,0,0,1-.8,4.742,5.665,5.665,0,0,1-4.156,2.262h-.59a42.5,42.5,0,0,1-8.973-1.309c-2.27-.441-4.6-.945-7.156-1.316a5.028,5.028,0,0,1-4.156,4.09c-2.117.508-12.84,2.918-25.984,14.23a6.746,6.746,0,0,1-2.555,1.164v258.78h76.7V322.665a2.714,2.714,0,0,1,5.113-1.316l82.02,154.35a28.816,28.816,0,1,0,50.872-27.085Zm-161.06-159.96C436.4,302.073,421.81,316.6,421.81,316.6s-14.66-14.527-15.754-27.949c0-.5-.086-1.094-.086-1.605,0-.582.086-1.094.086-1.6a15.838,15.838,0,0,1,31.512,0c0,.508.078,1.023.078,1.6C437.639,287.561,437.568,288.147,437.568,288.651ZM421.8,280.694a6.354,6.354,0,1,0,6.352,6.352A6.357,6.357,0,0,0,421.8,280.694Zm-282.05,27.375a28.81,28.81,0,0,0-4.746,55.675l10.8,3.73,0-59.625a27.221,27.221,0,0,0-6.059.219Zm241.12-251.41a67.65,67.65,0,1,0,67.648,67.652A67.652,67.652,0,0,0,380.872,56.659Z"/>
  </g>
</svg>
