<svg xmlns="http://www.w3.org/2000/svg" width="420" height="420" viewBox="0 0 420 420">
  <path id="noun-dashboard-3845106" d="M262.5,70h-70A52.5,52.5,0,0,0,140,122.506V437.5A52.5,52.5,0,0,0,192.506,490H262.5A52.5,52.5,0,0,0,315,437.494V122.5A52.5,52.5,0,0,0,262.494,70ZM166.266,455c0,9.665,105.9,0,96.234,0h-70c-6.852,0-7.256-11.492-10.261-17.5-1.046-2.083-7.239,2.813-7.239,0v-315c0-9.665-18.4,339.534-8.734,339.534l66.8-7.034c9.665,0-33.4-50.551-33.4-40.886ZM507.5,344.75h-105A52.5,52.5,0,0,0,350,397.256V437.5A52.5,52.5,0,0,0,402.506,490H507.5A52.5,52.5,0,0,0,560,437.494V397.25a52.5,52.5,0,0,0-52.506-52.5ZM525,437.5c0,9.665-70.264-16.125-79.929-16.125L402.5,455A17.5,17.5,0,0,1,385,437.5v24.534c0-9.665,207.194,35.816,60.071-55.18l-5.808,55.18c1.585,0,18.585-7.509,20.33-7.034,7.159,1.934,72.606-8.08,72.606,0ZM507.5,70h-105A52.5,52.5,0,0,0,350,122.506V257.25a52.5,52.5,0,0,0,52.506,52.5H507.5A52.5,52.5,0,0,0,560,257.244V122.5A52.5,52.5,0,0,0,507.494,70ZM525,257.25a17.5,17.5,0,0,1-17.5,17.5h-105a17.5,17.5,0,0,1-17.5-17.5v26.174c0-9.665,130.335,0,140,0l7.2-166.993c9.665,0-7.2-3.6-7.2,6.068Z" transform="translate(-140 -70)"/>
</svg>
