<svg xmlns="http://www.w3.org/2000/svg" width="245.407" height="200.789" viewBox="0 0 245.407 200.789">
  <path id="noun-scan-3834700" d="M286.5,253.034a8.065,8.065,0,0,1,7.72,3.648,7.837,7.837,0,0,1,0,8.449,8.067,8.067,0,0,1-7.72,3.649H275.153v29.7A51.87,51.87,0,0,1,259.7,335.46a53.241,53.241,0,0,1-37.434,15.328h-8.672a7.926,7.926,0,1,1,0-15.851h8.672a36.692,36.692,0,0,0,36.506-36.459v-29.7H228.69v11.836a24.676,24.676,0,0,1-7.368,17.561,25.327,25.327,0,0,1-17.79,7.273H142.3a25,25,0,0,1-25.159-24.835V268.78H87.482v29.7a36.7,36.7,0,0,0,36.934,36.459h9.207a7.926,7.926,0,1,1,0,15.851h-8.672c-29.355,0-53.236-23.334-53.528-52.31v-29.7H59a8.067,8.067,0,0,1-7.72-3.649,7.837,7.837,0,0,1,0-8.449A8.065,8.065,0,0,1,59,253.034Zm-83.077-57.7a25.326,25.326,0,0,1,17.789,7.273,24.675,24.675,0,0,1,7.368,17.561V233.8a2.831,2.831,0,0,1-.844,2.125,2.909,2.909,0,0,1-2.153.834H120.131a2.911,2.911,0,0,1-2.153-.834,2.835,2.835,0,0,1-.844-2.125V220.169a25,25,0,0,1,25.159-24.835ZM222.265,150c29.186.519,52.571,24.023,52.564,52.839v11.308a8.03,8.03,0,0,1-16.059,0V202.837a36.207,36.207,0,0,0-10.476-25.973,37.172,37.172,0,0,0-26.031-11.015h-8.672a7.926,7.926,0,1,1,0-15.851Zm-89.179,0a7.926,7.926,0,1,1,0,15.851h-8.671a37.177,37.177,0,0,0-26.308,10.865A36.213,36.213,0,0,0,87.48,202.837v11.307a8.084,8.084,0,0,1-8.03,7.925h-.107l-1.078-.085a7.962,7.962,0,0,1-6.844-7.841V202.837c0-28.978,23.64-52.549,52.995-52.839Z" transform="translate(-50.049 -149.998)"/>
</svg>
