<svg xmlns="http://www.w3.org/2000/svg" width="555.626" height="475.014" viewBox="0 0 555.626 475.014">
  <g id="noun-sunrise-641694" transform="translate(-72.186 -42.547)">
    <path id="Path_11885" data-name="Path 11885" d="M582.97,372.75a130.587,130.587,0,0,0-45.938-97.125,107.387,107.387,0,1,0-195.786-88.27,166.636,166.636,0,0,0-58.516-10.609c-91.328,0-165.7,73.938-165.7,164.83a165.36,165.36,0,0,0,2.844,29.969,75.922,75.922,0,0,0-47.688,70.219c0,41.781,34.125,75.8,76.125,75.8h403.27c42,0,76.125-34.016,76.125-75.8a75.49,75.49,0,0,0-44.734-69.016ZM439.58,141.09a89.341,89.341,0,0,1,82.8,123.484A132.2,132.2,0,0,0,418.689,247.4a164.7,164.7,0,0,0-61.031-52.828,89.628,89.628,0,0,1,81.922-53.484ZM551.69,499.51H148.31c-32.156,0-58.3-25.922-58.3-57.859,0-48.344,50.969-57.969,50.969-57.969s-6.125-17.062-6.125-42.219c0-80.938,66.391-146.89,147.88-146.89,89.906,0,128.19,73.719,128.19,73.719a115.451,115.451,0,0,1,39.812-6.891c63,0,114.3,50.859,114.3,113.53,0,.547-.328,10.062-.328,10.062s45.172,9.406,45.172,56.656c0,31.938-26.141,57.859-58.188,57.859Z"/>
    <path id="Path_11886" data-name="Path 11886" d="M430.61,42.547h17.938V96.359H430.61Z"/>
    <path id="Path_11887" data-name="Path 11887" d="M312.88,91.375l38.055,38.051L338.251,142.11,300.2,104.059Z"/>
    <path id="Path_11888" data-name="Path 11888" d="M574,221.7h53.812v17.938H574Z"/>
    <path id="Path_11889" data-name="Path 11889" d="M396.48,103.14,382.7,70,366.183,76.78l13.672,33.141Z"/>
    <path id="Path_11890" data-name="Path 11890" d="M496.42,69.988l16.57,6.867L499.256,110l-16.57-6.867Z"/>
    <path id="Path_11891" data-name="Path 11891" d="M600.34,287.54l-6.867,16.57-33.141-13.734,6.867-16.57Z"/>
    <path id="Path_11892" data-name="Path 11892" d="M600.4,173.84l-33.145,13.73L560.392,171l33.145-13.73Z"/>
    <path id="Path_11893" data-name="Path 11893" d="M566.29,91.309l12.684,12.684-38.051,38.051L528.239,129.36Z"/>
    <path id="Path_11894" data-name="Path 11894" d="M161.77,338.3h17.938a98.633,98.633,0,0,1,98.547-98.547V221.815c-64.2-.109-116.48,52.172-116.48,116.48Z"/>
  </g>
</svg>
