<svg xmlns="http://www.w3.org/2000/svg" width="430.092" height="250.886" viewBox="0 0 430.092 250.886">
  <g id="noun-sunrise-673191" transform="translate(-134.954 -154.556)">
    <path id="Path_11878" data-name="Path 11878" d="M148.4,328.16c16.8,0,23.52,4.48,33.6,8.961,11.2,5.6,23.52,13.441,47.039,13.441s35.84-6.719,47.039-13.441c8.961-5.6,16.8-8.961,33.6-8.961s23.52,4.48,33.6,8.961c11.2,5.6,23.52,13.441,47.039,13.441s35.84-6.719,47.039-13.441c8.961-5.6,16.8-8.961,33.6-8.961s23.52,4.48,33.6,8.961c11.2,5.6,23.52,13.441,47.039,13.441a13.619,13.619,0,0,0,13.441-13.441c0-6.719-6.719-13.441-13.441-13.441-16.8,0-23.52-4.48-33.6-8.961-11.2-5.6-23.52-13.441-47.039-13.441-6.719,0-12.32,1.121-17.922,1.121-11.2-48.16-53.762-82.879-103.04-82.879-57.121,0-103.04,44.8-105.28,101.92-4.48,1.121-8.961,1.121-15.68,1.121-16.8,0-23.52-4.48-33.6-8.961-11.2-5.6-23.52-13.441-47.039-13.441A13.619,13.619,0,0,0,134.96,313.6c0,6.719,5.6,14.559,13.441,14.559ZM350,247.519c38.078,0,70.559,26.879,76.16,63.84-1.121,0-2.238,1.121-3.359,1.121-8.961,5.6-16.8,8.961-33.6,8.961s-23.52-4.48-33.6-8.961c-11.2-5.6-23.52-13.441-47.039-13.441a97.024,97.024,0,0,0-35.84,6.719C282.8,273.281,313.038,247.52,350,247.52Z"/>
    <path id="Path_11879" data-name="Path 11879" d="M551.6,378.56c-16.8,0-23.52-4.48-33.6-8.961-11.2-5.6-23.52-13.441-47.039-13.441s-35.84,6.719-47.039,13.441c-8.961,5.6-16.8,8.961-33.6,8.961s-23.52-4.48-33.6-8.961c-11.2-5.6-23.52-13.441-47.039-13.441s-35.84,6.719-47.039,13.441c-8.961,5.6-16.8,8.961-33.6,8.961s-23.52-4.48-33.6-8.961c-11.2-5.6-23.52-13.441-47.039-13.441A13.619,13.619,0,0,0,134.954,369.6c0,6.719,6.719,13.441,13.441,13.441,16.8,0,23.52,4.48,33.6,8.961,11.2,5.6,23.52,13.441,47.039,13.441s35.84-6.719,47.039-13.441c8.961-5.6,16.8-8.961,33.6-8.961s23.52,4.48,33.6,8.961c11.2,5.6,23.52,13.441,47.039,13.441s35.84-6.719,47.039-13.441c8.961-5.6,16.8-8.961,33.6-8.961s23.52,4.48,33.6,8.961c11.2,5.6,23.52,13.441,47.039,13.441a13.441,13.441,0,0,0,0-26.882Z"/>
    <path id="Path_11880" data-name="Path 11880" d="M350,207.2a13.619,13.619,0,0,0,13.441-13.441V168A13.619,13.619,0,0,0,350,154.556c-6.719,0-13.441,6.719-13.441,13.441v25.762A13.619,13.619,0,0,0,350,207.2Z"/>
    <path id="Path_11881" data-name="Path 11881" d="M271.6,217.28c2.238,4.48,7.84,6.719,12.32,6.719,2.238,0,4.48-1.121,6.719-2.238,6.719-3.359,8.961-12.32,5.6-19.039l-13.441-22.4c-3.359-6.719-12.32-8.961-19.039-5.6s-8.961,12.32-5.6,19.039Z"/>
    <path id="Path_11882" data-name="Path 11882" d="M205.52,258.72l22.4,13.441c2.238,1.121,4.48,2.238,6.719,2.238,4.48,0,10.078-2.238,12.32-6.719,3.359-6.719,1.121-15.68-5.6-19.039l-22.4-13.441c-6.719-3.359-15.68-1.121-19.039,5.6-3.359,5.6-1.117,13.438,5.6,17.918Z"/>
    <path id="Path_11883" data-name="Path 11883" d="M465.36,273.28c2.238,0,4.48-1.121,6.719-2.238l22.4-13.441c6.719-3.359,8.961-12.32,5.6-19.039s-12.32-8.961-19.039-5.6l-22.4,13.441c-6.719,3.359-8.961,12.32-5.6,19.039,2.242,5.6,6.723,7.84,12.32,7.84Z"/>
    <path id="Path_11884" data-name="Path 11884" d="M409.36,222.88c2.238,1.121,4.48,2.238,6.719,2.238,4.48,0,10.078-2.238,12.32-6.719L441.84,196c3.359-6.719,1.121-15.68-5.6-19.039s-15.68-1.121-19.039,5.6l-13.441,22.4c-3.359,5.6-1.117,14.559,5.6,17.918Z"/>
  </g>
</svg>
