<svg xmlns="http://www.w3.org/2000/svg" width="549.505" height="445.396" viewBox="0 0 549.505 445.396">
  <g id="noun-tickets-1008095" transform="translate(-75.042 -58.035)">
    <path id="Path_11876" data-name="Path 11876" d="M580.72,333.76V273.28A20.672,20.672,0,0,0,560,252.561l-70,0a12.569,12.569,0,0,1-24.64,0H95.761a20.672,20.672,0,0,0-20.719,20.719v60.48a43.861,43.861,0,0,1,43.68,44.238c0,24.078-19.6,44.238-43.68,44.238v60.48a20.672,20.672,0,0,0,20.719,20.719h369.6a12.569,12.569,0,0,1,24.64,0h70a20.672,20.672,0,0,0,20.719-20.719V421.677a43.861,43.861,0,0,1-43.68-44.238c-.559-24.082,19.039-43.68,43.68-43.68ZM477.68,484.4A12.32,12.32,0,1,1,490,472.08,12.074,12.074,0,0,1,477.68,484.4Zm0-31.359A12.32,12.32,0,1,1,490,440.721,12.074,12.074,0,0,1,477.68,453.041Zm0-31.918A12.32,12.32,0,1,1,490,408.8,12.076,12.076,0,0,1,477.68,421.123Zm0-31.359A12.32,12.32,0,1,1,490,377.444,12.076,12.076,0,0,1,477.68,389.764Zm0-31.922A12.32,12.32,0,1,1,490,345.522,12.076,12.076,0,0,1,477.68,357.842Zm0-31.359A12.32,12.32,0,1,1,490,314.163C490.559,320.882,484.961,326.483,477.68,326.483Zm0-31.922A12.32,12.32,0,1,1,490,282.241C490.559,288.964,484.961,294.561,477.68,294.561Z"/>
    <path id="Path_11877" data-name="Path 11877" d="M623.28,266,602,210a44.181,44.181,0,0,1-56.559-25.762c-8.4-22.961,2.8-48.16,25.762-56.559L549.921,71.12C546,60.479,534.241,55.44,523.6,59.358L458.081,84a12.835,12.835,0,0,1-7.84,14A12.55,12.55,0,0,1,435.12,92.96L89.04,222.32C78.4,226.242,73.36,238,77.278,248.64l2.238,5.6a26.685,26.685,0,0,1,17.359-6.719h464.24a25.7,25.7,0,0,1,25.762,25.762v28.559l25.2-9.52C621.6,288.4,627.2,276.64,623.283,266ZM444.64,119.28c-2.238-6.719.559-13.441,7.281-16.238,6.719-2.238,13.441.559,16.238,7.281,2.238,6.719-.559,13.441-7.281,16.238C454.718,129.358,447.44,126,444.64,119.28Zm11.2,29.68c-2.238-6.719.559-13.441,7.281-16.238,6.719-2.238,13.441.559,16.238,7.281,2.238,6.719-.559,13.441-7.281,16.238S458.639,155.679,455.839,148.96Zm11.2,29.68c-2.238-6.719.559-13.441,7.281-16.238,6.719-2.238,13.441.559,16.238,7.281,2.238,6.719-.559,13.441-7.281,16.238A12.011,12.011,0,0,1,467.038,178.64Zm11.2,29.68c-2.238-6.719.559-13.441,7.281-16.238,6.719-2.238,13.441.559,16.238,7.281S501.2,212.8,494.475,215.6A12.012,12.012,0,0,1,478.237,208.32Zm27.441,36.961c-6.719,2.238-13.441-.559-16.238-7.281-2.238-6.719.559-13.441,7.281-16.238,6.719-2.238,13.441.559,16.238,7.281C515.2,235.762,511.838,243.039,505.678,245.281Z"/>
  </g>
</svg>
